<svg width="1000" height="1000" viewBox="0 0 1000 1000" fill="none" xmlns="http://www.w3.org/2000/svg">
<g clip-path="url(#clip0_202_103)">
<path d="M210.435 4.52116C214.998 4.33423 219.565 4.22126 224.132 4.18154L631.598 4.13154H750.146C785.534 4.13565 822.919 2.66823 857.767 9.43632C891.389 15.9661 923.514 31.2991 947.961 55.5578C990.273 97.5407 999.66 147.769 999.756 204.821L999.722 639.941L999.749 758.67C999.77 791.812 1001.57 826.071 995.22 858.774C988.781 892.882 972.237 924.257 947.742 948.833C901.742 994.718 853.039 999.71 792.02 999.779L363.412 999.806L246.608 999.799C212.67 999.799 177.274 1001.5 143.814 995.02C112.369 988.891 83.2159 974.224 59.5473 952.62C20.7288 916.595 5.23391 868.066 3.55826 816.32C3.01088 799.413 3.39406 782.377 3.4009 765.456L3.40911 674.781L3.41253 399.355L3.3961 253.105C3.38242 218.711 1.21412 182.969 7.16821 148.98C12.9677 115.876 27.5669 84.1853 50.7325 59.6499C96.524 11.1502 148.493 6.39465 210.435 4.52116Z" fill="#FDCB52"/>
<path d="M210.435 4.52116C214.998 4.33423 219.565 4.22126 224.132 4.18154L631.598 4.13154H750.146C785.534 4.13565 822.919 2.66823 857.767 9.43632C891.389 15.9661 923.514 31.2991 947.961 55.5578C990.273 97.5407 999.66 147.769 999.756 204.821L999.722 639.941L999.749 758.67C999.77 791.812 1001.57 826.07 995.22 858.774C988.781 892.882 972.237 924.257 947.742 948.833C901.742 994.718 853.039 999.71 792.02 999.779L363.412 999.806L246.608 999.799C212.67 999.799 177.274 1001.5 143.814 995.019C112.369 988.891 83.2159 974.224 59.5473 952.62C20.7288 916.595 5.23391 868.066 3.55826 816.32C3.01088 799.413 3.39406 782.377 3.4009 765.456L3.40911 674.781L3.41253 399.355L3.3961 253.105C3.38242 218.711 1.21412 182.969 7.16821 148.98C12.9677 115.876 27.5669 84.1852 50.7325 59.6499C96.524 11.1502 148.493 6.39464 210.435 4.52116Z" fill="white"/>
<path d="M627.848 84.0023C663.949 83.8255 700.627 93.8115 732.533 110.604C781.213 136.256 817.777 180.112 834.254 232.611C843.748 263.42 846.347 295.941 841.854 327.865C838.786 348.186 832.199 367.928 826.018 387.466C816.043 419.021 805.009 450.182 794.502 481.557C777.39 533.457 759.603 585.13 741.135 636.562C726.324 678.918 712.972 721.44 691.934 761.284C682.417 779.3 671.623 796.949 658.89 812.888C648.657 825.696 636.736 837.211 624.46 848.039C592.881 875.875 561.112 895.282 520.708 907.707C448.803 929.803 366.657 924.572 299.806 888.998C239.594 856.955 189.776 797.373 169.985 732.028C164.166 712.461 160.912 692.218 160.304 671.816C159.792 658.538 159.808 645.376 161.288 632.161C164.424 604.17 173.03 578.027 182.015 551.49L198.821 501.768C210.341 467.6 220.028 432.468 237.18 400.58C251.846 373.316 270.696 347.176 294.778 327.453C300.882 322.453 308.011 317.038 315.737 314.892C323.722 312.673 332.764 313.614 339.905 317.905C346.35 321.78 351.278 328.235 352.815 335.643C357.521 358.325 335.469 372.265 322.151 386.619C314.009 395.462 306.667 405.008 300.21 415.147C278.788 448.912 270.472 481.685 257.993 519.092C237.548 580.379 211.804 638.102 226.773 704.088C238.026 753.689 271.931 797.436 314.82 824.179C364.759 855.667 425.282 865.7 482.71 852.005C546.375 837.142 598.026 799.376 632.455 743.96C651.862 712.924 662.547 676.972 674.365 642.588L711.226 534.51L746.818 429.511C756.181 402.227 766.539 374.911 773.384 346.864C778.329 326.602 781.396 305.49 779.634 284.625C776.366 245.887 758.767 209.42 728.762 184.336C695.568 156.594 651.043 146.287 608.619 150.272C565.977 154.277 527.261 173.67 499.87 206.991C490.958 217.938 483.553 230.029 477.854 242.942C469.766 261.357 463.704 280.919 457.024 299.888L418.119 413.166L385.667 507.652C379.874 524.586 372.983 541.818 368.652 559.17C366.168 569.117 365.152 579.784 366.217 590.006C368.333 610.288 379.562 627.068 395.258 639.63C414.27 654.847 434.002 662.213 458.367 659.294C471.84 657.737 484.755 653.027 496.068 645.547C528.766 624.2 537.276 589.233 549.271 554.677L572.833 488.854C577.205 476.74 581.223 460.789 589.395 450.771C594.265 444.799 601.637 440.819 609.334 440.22C617.839 439.51 626.263 442.339 632.615 448.04C638.144 452.949 642.121 459.685 642.35 467.219C642.465 471.136 641.595 475.127 640.49 478.867C637.337 489.529 633.256 500.011 629.542 510.502L610.33 564.939L595.422 607.226C592.177 616.389 589.218 625.923 584.977 634.674C578.625 647.791 569.725 660.244 559.779 670.866C534.054 698.331 493.486 719.551 455.346 720.713C417.912 721.858 378.457 709.187 351.027 683.079C325.147 658.447 306.241 625.894 305.392 589.479C304.979 571.783 307.85 554.449 312.153 537.354C317.277 516.997 324.442 497.178 331.127 477.296L361.107 387.873L391.613 295.968C401.15 266.731 410.1 236.441 423.133 208.554C432.251 189.168 444.409 171.362 459.145 155.812C506.326 106.326 560.088 85.6614 627.848 84.0023Z" fill="black"/>
<path d="M672.458 263.643C683.429 262.084 695.843 266.129 705.028 271.943C717.424 279.771 726.123 292.283 729.139 306.627C732.71 323.39 729.191 343.68 719.742 358.02C709.967 372.855 695.31 381.1 678.187 384.581C665.282 386.308 653.08 382.508 642.642 374.858C630.497 365.963 622.256 351.487 620.036 336.663C617.581 319.185 622.108 301.442 632.626 287.271C642.207 274.381 656.554 265.869 672.458 263.643Z" fill="black"/>
<path d="M701.338 307.641C705.836 307.201 710.775 308.812 714.232 311.705C719.251 315.908 721.912 322.869 722.244 329.291C722.616 336.236 720.172 343.036 715.468 348.158C711.324 352.608 706.712 354.323 700.754 354.574C696.37 354.207 692.719 353.156 689.045 350.663C683.951 347.209 680.598 341.551 679.499 335.542C678.406 329.522 679.785 323.316 683.322 318.324C687.746 311.973 693.915 308.959 701.338 307.641Z" fill="white"/>
<path d="M551.531 237.337C563.836 236.301 576.466 240.975 586.195 248.324C598.116 257.325 605.402 271.28 607.348 285.965C609.648 303.362 605.03 322.973 594.213 336.914C584.238 349.766 570.709 355.846 554.856 357.817C540.589 358.198 528.571 355.6 517.25 346.446C506.199 337.51 498.493 324.383 497.084 310.154C495.3 292.139 501.329 271.966 512.924 258.04C522.882 246.086 536.079 238.836 551.531 237.337Z" fill="black"/>
<path d="M579.418 282.476C583.819 282.03 588.237 283.173 591.872 285.699C596.816 289.184 599.535 295.261 600.365 301.108C601.406 308.269 599.426 315.541 594.905 321.189C590.836 326.28 586 328.66 579.624 329.424C575.561 328.926 572.087 328.217 568.505 326.055C563.188 322.801 559.439 317.506 558.14 311.411C556.709 305.047 558.02 298.374 561.746 293.019C566.078 286.756 572.162 283.896 579.418 282.476Z" fill="white"/>
</g>
<defs>
<clipPath id="clip0_202_103">
<rect width="1000" height="1000" fill="white"/>
</clipPath>
</defs>
</svg>
