<svg width="213" height="213" viewBox="0 0 213 213" fill="none" xmlns="http://www.w3.org/2000/svg">
<path d="M196.794 102.235H73.7784V95.5913C73.7784 88.2586 67.812 82.3043 60.4829 82.3043C53.1455 82.3043 47.1875 88.2669 47.1875 95.5913V102.235H17.2568C12.9273 102.293 12.8527 108.804 17.2568 108.878H47.179V115.522C47.179 122.855 53.1453 128.809 60.4744 128.809C67.8118 128.809 73.7699 122.846 73.7699 115.522V108.878H196.786C201.057 108.837 201.24 102.31 196.786 102.235H196.794ZM67.1307 115.522C66.898 124.275 54.0596 124.291 53.8352 115.522V95.5831C53.8352 91.9207 56.8183 88.9395 60.4829 88.9395C64.1476 88.9395 67.1307 91.9207 67.1307 95.5831V115.522Z" fill="black"/>
<path d="M196.794 155.398H166.872V148.754C166.315 131.191 140.83 131.191 140.273 148.754V155.398H17.2568C15.4203 155.398 13.9329 156.884 13.9329 158.72C13.9329 160.555 15.4203 162.041 17.2568 162.041H140.273V168.685C140.273 176.018 146.239 181.972 153.568 181.972C160.906 181.972 166.864 176.009 166.864 168.685V162.041H196.786C201.115 161.983 201.19 155.473 196.786 155.398H196.794ZM160.224 168.685C159.992 177.438 147.153 177.454 146.929 168.685V148.746C146.929 145.084 149.912 142.103 153.577 142.103C157.241 142.103 160.224 145.084 160.224 148.746V168.685Z" fill="black"/>
<path d="M17.2557 55.7132H140.272V62.3568C140.272 69.6895 146.238 75.6438 153.567 75.6438C160.904 75.6438 166.863 69.6812 166.863 62.3568V55.7132H196.785C201.114 55.6551 201.189 49.1445 196.785 49.0697H166.863V42.4262C166.863 35.0935 160.896 29.1392 153.567 29.1392C146.23 29.1392 140.272 35.1017 140.272 42.4262V49.0697H17.2557C12.9845 49.1112 12.8016 55.6384 17.2557 55.7132ZM146.919 42.4262C147.152 33.6733 159.99 33.6568 160.215 42.4262V62.365C160.215 66.0274 157.232 69.0086 153.567 69.0086C149.902 69.0086 146.919 66.0274 146.919 62.365V42.4262Z" fill="black"/>
</svg>
