<svg width="409" height="394" viewBox="0 0 409 394" fill="none" xmlns="http://www.w3.org/2000/svg">
<path fill-rule="evenodd" clip-rule="evenodd" d="M90.601 298.161C79.856 297.625 70.675 296.745 62.831 295.304C47.948 292.571 37.437 287.75 29.843 280.157C22.25 272.563 17.429 262.052 14.696 247.169C11.072 227.441 11 199.261 11 159C11 118.739 11.072 90.559 14.696 70.831C17.429 55.948 22.25 45.437 29.843 37.843C37.437 30.25 47.948 25.429 62.831 22.696C82.559 19.072 110.739 19 151 19C191.261 19 219.441 19.072 239.169 22.696C254.052 25.429 264.563 30.25 272.157 37.843C279.75 45.437 284.571 55.948 287.304 70.831C288.26 76.036 288.969 81.829 289.495 88.278C324.246 97.628 348.766 104.626 365.261 112.874C378.287 119.388 386.717 126.835 391.737 136.228C396.697 145.507 398.382 156.874 397.058 171.817C395.297 191.706 388.14 218.67 377.896 256.901C367.476 295.79 360.112 322.991 351.506 341.109C345.014 354.777 337.637 363.683 328.337 369.052C319.037 374.421 307.636 376.357 292.553 375.146C272.559 373.54 245.321 366.316 206.431 355.895C168.135 345.634 141.178 338.342 123.072 329.905C105.105 321.533 95.072 311.837 90.601 298.161ZM290.439 105.102C290.98 120.094 291 137.886 291 159C291 199.261 290.928 227.441 287.304 247.169C284.571 262.052 279.75 272.563 272.157 280.157C264.563 287.75 254.052 292.571 239.169 295.304C219.441 298.928 191.261 299 151 299C134.974 299 120.863 298.989 108.437 298.746C112.543 305.527 119.545 310.609 129.83 315.402C147.36 323.571 173.497 330.506 210.573 340.441C248.184 350.519 274.497 357.644 293.834 359.197C304.972 360.091 313.47 359.16 320.337 355.196C327.204 351.231 332.26 344.337 337.054 334.244C345.377 316.721 352.363 290.371 362.442 252.759C372.36 215.743 379.415 189.663 381.121 170.406C382.109 159.25 381.329 150.697 377.626 143.769C372.941 135.002 363.772 129.143 349.505 123.32C335.02 117.406 315.649 111.907 290.439 105.102ZM275 159C275 120.061 275.072 92.801 271.568 73.721C269.549 62.731 266.45 54.764 260.843 49.157C255.236 43.55 247.269 40.451 236.279 38.432C217.199 34.928 189.939 35 151 35C112.061 35 84.801 34.928 65.721 38.432C54.731 40.451 46.764 43.55 41.157 49.157C35.55 54.764 32.451 62.731 30.432 73.721C26.928 92.801 27 120.061 27 159C27 197.939 26.928 225.199 30.432 244.279C32.451 255.269 35.55 263.236 41.157 268.843C46.764 274.45 54.731 277.549 65.721 279.568C84.801 283.072 112.061 283 151 283C189.939 283 217.199 283.072 236.279 279.568C247.269 277.549 255.236 274.45 260.843 268.843C266.45 263.236 269.549 255.269 271.568 244.279C275.072 225.199 275 197.939 275 159ZM85 167C80.585 167 77 163.415 77 159C77 154.585 80.585 151 85 151H216C220.415 151 224 154.585 224 159C224 163.415 220.415 167 216 167H85ZM85 221C80.585 221 77 217.415 77 213C77 208.585 80.585 205 85 205H180C184.415 205 188 208.585 188 213C188 217.415 184.415 221 180 221H85ZM85 113C80.585 113 77 109.415 77 105C77 100.585 80.585 97 85 97H216C220.415 97 224 100.585 224 105C224 109.415 220.415 113 216 113H85Z" fill="black"/>
</svg>
